<?xml version="1.0" encoding="UTF-8"?>
<!DOCTYPE svg PUBLIC "-//W3C//DTD SVG 1.1//EN" "http://www.w3.org/Graphics/SVG/1.1/DTD/svg11.dtd">
<svg xmlns="http://www.w3.org/2000/svg" version="1.1" width="1233px" height="415px" style="shape-rendering:geometricPrecision; text-rendering:geometricPrecision; image-rendering:optimizeQuality; fill-rule:evenodd; clip-rule:evenodd" xmlns:xlink="http://www.w3.org/1999/xlink">
<g><path style="opacity:0.97" fill="#fe0000" d="M 332.5,-0.5 C 333.5,-0.5 334.5,-0.5 335.5,-0.5C 336.043,0.74213 336.377,2.07546 336.5,3.5C 335.476,6.05611 334.642,8.72278 334,11.5C 318.421,24.4122 304.254,38.5789 291.5,54C 289.754,54.4709 288.087,55.1376 286.5,56C 271.862,71.6381 256.862,86.9714 241.5,102C 235.839,105.658 230.173,109.325 224.5,113C 218.43,119.74 211.763,125.74 204.5,131C 199.095,135.219 195.095,140.386 192.5,146.5C 188.845,147.332 185.179,148.165 181.5,149C 179.205,152.297 176.538,155.297 173.5,158C 159.648,167.843 146.982,179.176 135.5,192C 129.925,194.965 126.091,199.465 124,205.5C 118.469,209.853 114.302,215.187 111.5,221.5C 112.592,224.094 114.259,226.261 116.5,228C 122.484,230.775 128.15,234.108 133.5,238C 153.303,242.817 170.636,252.151 185.5,266C 192.684,269.424 199.684,273.091 206.5,277C 210.315,281.982 214.648,286.482 219.5,290.5C 226.282,294.774 232.949,299.274 239.5,304C 254.588,312.876 269.922,321.209 285.5,329C 301.1,340.926 316.433,353.26 331.5,366C 335.654,368.053 339.987,369.719 344.5,371C 358.932,381.533 373.599,391.533 388.5,401C 391.7,401.101 394.7,401.768 397.5,403C 393.228,407.451 388.561,411.284 383.5,414.5C 380.833,414.5 378.167,414.5 375.5,414.5C 373.015,412.087 370.015,410.42 366.5,409.5C 365.352,407.851 364.019,406.351 362.5,405C 354.5,404.667 346.5,404.333 338.5,404C 339.476,401.853 339.309,399.686 338,397.5C 336.442,395.641 334.609,394.141 332.5,393C 323.489,390.256 314.489,387.256 305.5,384C 289.162,371.548 271.495,361.548 252.5,354C 238.915,342.62 223.582,334.62 206.5,330C 195.671,323.751 184.671,317.751 173.5,312C 167.057,305.612 159.391,301.612 150.5,300C 146.217,297.385 142.217,294.385 138.5,291C 133.54,289.516 128.874,287.516 124.5,285C 120.56,283.985 116.56,283.485 112.5,283.5C 112.753,281.173 112.086,279.173 110.5,277.5C 104.007,276.253 98.3403,273.42 93.5,269C 84.7888,267.927 77.1221,264.594 70.5,259C 65.3272,258.724 60.9939,256.724 57.5,253C 51.304,252.031 45.9707,249.364 41.5,245C 38.5285,244.206 35.5285,243.539 32.5,243C 24.0793,235.379 14.0793,231.379 2.5,231C 1.30943,230.302 0.309426,229.469 -0.5,228.5C -0.5,227.833 -0.5,227.167 -0.5,226.5C 1.48131,224.697 3.64798,223.03 6,221.5C 8.65178,215.516 13.1518,211.683 19.5,210C 28.5,202.333 37.5,194.667 46.5,187C 52.4252,182.585 58.7585,178.918 65.5,176C 67.1667,174.333 68.8333,172.667 70.5,171C 80.3712,165.456 89.3712,158.789 97.5,151C 104.996,148.871 111.329,144.871 116.5,139C 141.925,121.899 167.591,105.232 193.5,89C 205.224,83.2882 215.891,75.9549 225.5,67C 238.514,61.3173 250.514,53.984 261.5,45C 263.972,43.5399 266.639,42.5399 269.5,42C 280.867,34.3215 292.2,26.6549 303.5,19C 309.989,17.6459 315.656,14.8125 320.5,10.5C 321.882,9.19947 323.548,8.36614 325.5,8C 327.263,4.60596 329.596,1.77263 332.5,-0.5 Z"/></g>
<g><path style="opacity:0.298" fill="#fe0000" d="M 344.5,-0.5 C 344.833,-0.5 345.167,-0.5 345.5,-0.5C 345.315,0.170143 344.981,0.170143 344.5,-0.5 Z"/></g>
<g><path style="opacity:0.965" fill="#fe0000" d="M 659.5,-0.5 C 675.5,-0.5 691.5,-0.5 707.5,-0.5C 718.106,0.645057 727.439,4.81172 735.5,12C 738.533,13.8444 741.866,14.8444 745.5,15C 750.854,21.2249 757.52,25.2249 765.5,27C 771.181,31.8343 777.181,36.1676 783.5,40C 787.776,45.1164 792.776,49.2831 798.5,52.5C 800.93,55.8789 801.597,59.5456 800.5,63.5C 797.921,68.2479 794.755,72.5813 791,76.5C 790.715,81.3986 789.548,86.0653 787.5,90.5C 783.732,95.1051 780.565,100.105 778,105.5C 774.699,108.595 770.866,109.262 766.5,107.5C 759.845,99.3339 752.178,92.5006 743.5,87C 737.166,78.2451 730.999,78.4117 725,87.5C 721.917,90.9081 719.251,94.5748 717,98.5C 716.907,104.159 716.907,109.826 717,115.5C 713.688,116.976 710.188,117.81 706.5,118C 703.443,123.065 699.61,127.565 695,131.5C 692.667,135.167 690.333,138.833 688,142.5C 685.059,143.773 682.726,145.773 681,148.5C 676.909,158.351 671.076,167.018 663.5,174.5C 661.134,181.383 656.968,187.05 651,191.5C 650.273,193.953 649.273,196.286 648,198.5C 642.678,206.649 637.178,214.649 631.5,222.5C 629.28,225.785 628.113,229.451 628,233.5C 625.07,237.699 622.403,242.032 620,246.5C 616.942,250.062 613.442,253.062 609.5,255.5C 608.147,257.877 607.647,260.21 608,262.5C 602.746,266.421 598.079,271.088 594,276.5C 593.667,277.833 593.333,279.167 593,280.5C 586.634,286.531 580.634,292.864 575,299.5C 566.485,314.021 557.152,328.021 547,341.5C 546.667,342.833 546.333,344.167 546,345.5C 539.042,350.789 532.709,356.789 527,363.5C 525.483,367.239 523.816,370.906 522,374.5C 517.25,380.242 512.917,386.242 509,392.5C 507.539,396.232 505.706,399.732 503.5,403C 505.833,404 508.167,405 510.5,406C 507.529,406.794 504.529,407.461 501.5,408C 502.28,409.073 502.113,410.24 501,411.5C 499.855,412.636 498.688,413.636 497.5,414.5C 493.5,414.5 489.5,414.5 485.5,414.5C 481.357,408.696 475.691,406.862 468.5,409C 466.099,410.039 463.766,410.206 461.5,409.5C 464.087,408.111 466.421,406.278 468.5,404C 465.113,400.947 461.447,398.28 457.5,396C 454.167,392 450.833,388 447.5,384C 443.698,382.681 440.198,380.848 437,378.5C 437.522,376.951 437.355,375.451 436.5,374C 438.709,367.769 442.542,362.602 448,358.5C 449.439,356.725 450.439,354.725 451,352.5C 462.596,341.439 471.263,328.439 477,313.5C 480,310.5 483,307.5 486,304.5C 494.139,293.08 502.805,282.08 512,271.5C 518.063,255.415 527.397,241.415 540,229.5C 544.048,224.291 547.881,218.958 551.5,213.5C 557.195,201.954 564.695,191.621 574,182.5C 575.859,179.254 577.525,175.921 579,172.5C 588.202,161.636 596.202,149.97 603,137.5C 605.333,135.167 607.667,132.833 610,130.5C 612.815,125.737 615.815,121.07 619,116.5C 633.71,102.485 646.044,86.8183 656,69.5C 659.355,63.2754 662.189,56.7754 664.5,50C 661.066,44.6196 656.066,42.2862 649.5,43C 645.5,41 641.5,39 637.5,37C 625.383,36.7958 613.383,35.7958 601.5,34C 598.743,33.1221 596.076,32.1221 593.5,31C 579.155,30.8328 564.822,30.3328 550.5,29.5C 549.48,25.8603 548.98,22.1936 549,18.5C 549.5,18 550,17.5 550.5,17C 561.323,14.9192 571.99,12.2525 582.5,9C 602.044,7.20471 621.711,5.53804 641.5,4C 647.694,2.78497 653.694,1.28497 659.5,-0.5 Z"/></g>
<g><path style="opacity:0.298" fill="#fe0000" d="M 886.5,-0.5 C 886.833,-0.5 887.167,-0.5 887.5,-0.5C 887.315,0.170143 886.981,0.170143 886.5,-0.5 Z"/></g>
<g><path style="opacity:0.965" fill="#fe0000" d="M 896.5,-0.5 C 897.5,-0.5 898.5,-0.5 899.5,-0.5C 902.404,1.77263 904.737,4.60596 906.5,8C 908.452,8.36614 910.118,9.19947 911.5,10.5C 916.344,14.8125 922.011,17.6459 928.5,19C 939.8,26.6549 951.133,34.3215 962.5,42C 968.828,43.6456 974.161,46.9789 978.5,52C 983.579,53.4034 987.912,56.0701 991.5,60C 996.506,62.3451 1001.51,64.6784 1006.5,67C 1020.32,79.5246 1035.66,89.5246 1052.5,97C 1073.39,111.272 1094.39,125.272 1115.5,139C 1120.67,144.871 1127,148.871 1134.5,151C 1142.63,158.789 1151.63,165.456 1161.5,171C 1163.17,172.667 1164.83,174.333 1166.5,176C 1173.24,178.918 1179.57,182.585 1185.5,187C 1194.5,194.667 1203.5,202.333 1212.5,210C 1218.85,211.683 1223.35,215.516 1226,221.5C 1228.35,223.03 1230.52,224.697 1232.5,226.5C 1232.5,227.167 1232.5,227.833 1232.5,228.5C 1231.69,229.469 1230.69,230.302 1229.5,231C 1217.92,231.379 1207.92,235.379 1199.5,243C 1196.47,243.539 1193.47,244.206 1190.5,245C 1186.03,249.364 1180.7,252.031 1174.5,253C 1171.01,256.724 1166.67,258.724 1161.5,259C 1154.88,264.594 1147.21,267.927 1138.5,269C 1133.66,273.42 1127.99,276.253 1121.5,277.5C 1119.91,279.173 1119.25,281.173 1119.5,283.5C 1113.42,282.757 1108.42,284.591 1104.5,289C 1083.11,298.691 1062.45,309.358 1042.5,321C 1045.63,327.734 1049.13,334.234 1053,340.5C 1053.49,341.793 1053.66,343.127 1053.5,344.5C 1044.76,347.813 1036.26,351.813 1028,356.5C 1027,355.833 1026,355.167 1025,354.5C 1011.29,326.897 997.79,298.73 984.5,270C 984.645,269.228 984.978,268.561 985.5,268C 994.108,264.695 1002.44,260.861 1010.5,256.5C 1014.8,261.433 1017.8,267.1 1019.5,273.5C 1028.67,270.254 1037.67,266.421 1046.5,262C 1062.73,251.696 1080.07,243.696 1098.5,238C 1103.85,234.108 1109.52,230.775 1115.5,228C 1119.76,225.351 1120.93,221.851 1119,217.5C 1115.7,213.2 1112.04,209.2 1108,205.5C 1105.91,199.465 1102.08,194.965 1096.5,192C 1085.02,179.176 1072.35,167.843 1058.5,158C 1055.46,155.297 1052.8,152.297 1050.5,149C 1046.82,148.165 1043.15,147.332 1039.5,146.5C 1035.81,138.636 1030.14,132.469 1022.5,128C 1017.5,123 1012.5,118 1007.5,113C 1001.83,109.325 996.161,105.658 990.5,102C 972.863,83.6919 954.697,66.1919 936,49.5C 934.561,47.7254 933.561,45.7254 933,43.5C 921.633,32.4646 909.966,21.7979 898,11.5C 897.358,8.72278 896.524,6.05611 895.5,3.5C 895.623,2.07546 895.957,0.74213 896.5,-0.5 Z"/></g>
<g><path style="opacity:0.057" fill="#fe0000" d="M 623.5,2.5 C 625.288,2.21478 626.955,2.54811 628.5,3.5C 627.667,3.83333 626.833,4.16667 626,4.5C 624.624,4.31577 623.791,3.64911 623.5,2.5 Z"/></g>
<g><path style="opacity:0.341" fill="#fe0000" d="M 320.5,10.5 C 319.833,9.16667 319.833,9.16667 320.5,10.5 Z"/></g>
<g><path style="opacity:0.341" fill="#fe0000" d="M 911.5,9.5 C 912.833,10.1667 912.833,10.1667 911.5,9.5 Z"/></g>
<g><path style="opacity:0.934" fill="#fe0000" d="M 855.5,414.5 C 853.5,414.5 851.5,414.5 849.5,414.5C 843.302,401.102 836.802,387.768 830,374.5C 829.316,373.216 829.483,372.049 830.5,371C 882.661,345.633 934.661,320.133 986.5,294.5C 988.274,296.53 989.941,298.697 991.5,301C 996.863,312.893 1002.36,324.727 1008,336.5C 1008.67,337.833 1008.67,339.167 1008,340.5C 1007.67,340.167 1007.33,339.833 1007,339.5C 1002.58,341.623 998.418,344.123 994.5,347C 947.493,368.506 901.16,391.006 855.5,414.5 Z"/></g>
<g><path style="opacity:0.109" fill="#fe0000" d="M 404.5,399.5 C 409.844,399.334 415.177,399.501 420.5,400C 414.041,400.079 407.707,400.912 401.5,402.5C 401.167,402.167 400.833,401.833 400.5,401.5C 401.949,400.828 403.282,400.161 404.5,399.5 Z"/></g>
<g><path style="opacity:0.015" fill="#fe0000" d="M 446.5,408.5 C 448.924,408.192 451.257,408.526 453.5,409.5C 450.894,410.652 448.227,410.818 445.5,410C 446.056,409.617 446.389,409.117 446.5,408.5 Z"/></g>
<g><path style="opacity:0.068" fill="#fe0000" d="M 436.5,409.5 C 443.234,409.487 443.734,410.487 438,412.5C 436.961,411.756 436.461,410.756 436.5,409.5 Z"/></g>
</svg>
